<svg width="30" height="30" viewBox="0 0 30 30" fill="none" xmlns="http://www.w3.org/2000/svg">
<path d="M26.9746 14.3996H26.5734V12.9026C26.5734 12.3666 26.1373 11.9306 25.6013 11.9306H24.6813C24.544 11.56 24.1881 11.2947 23.7703 11.2947H22.8329C22.2969 11.2947 21.8608 11.7307 21.8608 12.2667V14.3997H8.13882V12.2667C8.13882 11.7307 7.70273 11.2947 7.16676 11.2947H6.22921C5.81151 11.2947 5.45558 11.56 5.3183 11.9306H4.39836C3.86239 11.9306 3.42629 12.3667 3.42629 12.9026V14.3996H3.02529C2.73519 14.3996 2.49994 14.6348 2.49994 14.925C2.49994 15.2151 2.73519 15.4503 3.02529 15.4503H3.42629V17.0974C3.42629 17.6334 3.86239 18.0694 4.39836 18.0694H5.31836C5.45558 18.44 5.81156 18.7054 6.22927 18.7054H7.16681C7.70278 18.7054 8.13887 18.2693 8.13887 17.7333V15.4503H21.8609V17.7333C21.8609 18.2693 22.297 18.7054 22.833 18.7054H23.7705C24.1882 18.7054 24.5441 18.44 24.6814 18.0694H25.6014C26.1374 18.0694 26.5735 17.6334 26.5735 17.0974V15.4503H26.9747C27.2648 15.4503 27.5 15.2151 27.5 14.925C27.5 14.6348 27.2647 14.3996 26.9746 14.3996ZM4.477 12.9813H5.2572V17.0187H4.477V12.9813ZM6.30786 17.6547V17.0974V12.9026V12.3453H7.08811V17.6546H6.30786V17.6547ZM23.6918 17.6547H22.9116V12.3453H23.6918V12.9026V17.0973V17.6547ZM24.7425 17.0187V12.9813H25.5227V17.0187H24.7425Z" fill="white"/>
</svg>
