<svg width="30" height="30" viewBox="0 0 30 30" fill="none" xmlns="http://www.w3.org/2000/svg">
<path d="M15 7.8515C16.5102 7.8515 17.7344 6.62728 17.7344 5.11713C17.7344 3.60697 16.5102 2.38275 15 2.38275C13.4898 2.38275 12.2656 3.60697 12.2656 5.11713C12.2656 6.62728 13.4898 7.8515 15 7.8515Z" fill="white"/>
<path d="M23.8379 8.85297H6.16211C5.81246 8.85297 5.47713 8.99186 5.22989 9.2391C4.98265 9.48634 4.84375 9.82168 4.84375 10.1713C4.84375 10.521 4.98265 10.8563 5.22989 11.1035C5.47713 11.3508 5.81246 11.4897 6.16211 11.4897H11.1367C11.4741 11.4897 11.8691 11.6406 12.0928 12.2221C12.354 12.8974 12.2261 14.2016 12.0649 15.2119L11.854 16.4057C11.8544 16.4088 11.8541 16.412 11.8531 16.4149C11.852 16.4179 11.8504 16.4206 11.8481 16.4228L10.1587 26.0327C10.0974 26.3815 10.1768 26.7404 10.3795 27.0308C10.5822 27.3213 10.8917 27.5196 11.2402 27.5825C11.4126 27.6129 11.5892 27.6089 11.76 27.5705C11.9307 27.5322 12.0921 27.4603 12.2349 27.359C12.3776 27.2578 12.4988 27.1292 12.5914 26.9807C12.684 26.8322 12.7462 26.6668 12.7744 26.4941L13.9419 19.8144C13.9419 19.8144 14.3164 18.228 15 18.228C15.6948 18.228 16.0615 19.8144 16.0615 19.8144L17.229 26.4999C17.2572 26.6742 17.3199 26.8411 17.4133 26.9908C17.5067 27.1406 17.6289 27.2703 17.7729 27.3724C17.917 27.4744 18.0799 27.5468 18.2521 27.5853C18.4244 27.6237 18.6026 27.6275 18.7764 27.5964C18.9501 27.5653 19.1159 27.4999 19.2642 27.4041C19.4124 27.3082 19.54 27.1838 19.6397 27.0382C19.7394 26.8925 19.809 26.7284 19.8447 26.5555C19.8803 26.3826 19.8811 26.2044 19.8472 26.0312L18.1572 16.4213C18.1576 16.4183 18.1573 16.4152 18.1564 16.4122C18.1554 16.4093 18.1539 16.4065 18.1519 16.4042L17.9404 15.2104C17.7793 14.2001 17.6514 12.8959 17.9126 12.2206C18.1353 11.6406 18.543 11.4882 18.854 11.4882H23.8379C24.1875 11.4882 24.5229 11.3493 24.7701 11.1021C25.0174 10.8548 25.1562 10.5195 25.1562 10.1699C25.1562 9.82021 25.0174 9.48488 24.7701 9.23764C24.5229 8.9904 24.1875 8.8515 23.8379 8.8515V8.85297Z" fill="white"/>
</svg>
