<svg width="30" height="30" viewBox="0 0 30 30" fill="none" xmlns="http://www.w3.org/2000/svg">
<path d="M25.0014 10.4738L22.935 9.01918C22.4142 8.65248 21.8021 8.45873 21.1651 8.45873H18.5364V4.25185C18.5364 3.9768 18.3135 3.75385 18.0384 3.75385H15.498V2.998C15.498 2.72295 15.2751 2.5 15 2.5C14.725 2.5 14.502 2.72295 14.502 2.998V3.75381H11.9615C11.6865 3.75381 11.4635 3.97675 11.4635 4.2518V8.45863H8.83546C8.1986 8.45863 7.58674 8.65238 7.06594 9.01888L4.99866 10.4737C4.77375 10.632 4.7197 10.9427 4.87805 11.1676C4.97502 11.3054 5.12912 11.3791 5.28576 11.3791C5.38479 11.3791 5.48484 11.3496 5.57199 11.2883L7.63927 9.83348C7.99132 9.58568 8.405 9.45477 8.83556 9.45477H11.4636V18.1482H10.9994C10.2501 18.1482 9.64044 18.7578 9.64044 19.5071C9.64044 20.2565 10.2501 20.8661 10.9994 20.8661H11.4636V24.8835H9.2776C8.10944 24.8835 7.1591 25.8339 7.1591 27.0021C7.1591 27.2771 7.38205 27.5 7.6571 27.5H22.3431C22.6181 27.5 22.8411 27.2771 22.8411 27.0021C22.8411 25.8339 21.8907 24.8835 20.7225 24.8835H18.5366V20.8661H19.0008C19.7501 20.8661 20.3597 20.2565 20.3597 19.5071C20.3597 18.7578 19.7501 18.1482 19.0008 18.1482H18.5366V9.45467H21.1652C21.5958 9.45467 22.0097 9.58568 22.3618 9.83363L24.4282 11.2883C24.6531 11.4466 24.9637 11.3926 25.1221 11.1677C25.2803 10.9428 25.2263 10.6321 25.0014 10.4738ZM15.498 4.74985H17.5405V8.45863H15.498V4.74985ZM12.4595 4.74985H14.502V8.45863H12.4595V4.74985ZM12.4595 9.45467H17.5404V18.1481H12.4595V9.45467ZM20.7225 25.8794C21.1627 25.8794 21.5445 26.1341 21.7283 26.504H8.27165C8.45548 26.1341 8.83727 25.8794 9.2775 25.8794H20.7225ZM17.5404 24.8834H12.4595V20.8659H17.5404V24.8834ZM19.0007 19.1442C19.2008 19.1442 19.3636 19.3069 19.3636 19.507C19.3636 19.7071 19.2008 19.8699 19.0007 19.8699H10.9993C10.7992 19.8699 10.6364 19.7071 10.6364 19.507C10.6364 19.3069 10.7992 19.1442 10.9993 19.1442H19.0007Z" fill="white"/>
</svg>
