<svg width="30" height="30" viewBox="0 0 30 30" fill="none" xmlns="http://www.w3.org/2000/svg">
<path fill-rule="evenodd" clip-rule="evenodd" d="M5 15C5 9.47715 9.47715 5 15 5C20.5229 5 25 9.47715 25 15C25 20.5229 20.5229 25 15 25C9.47715 25 5 20.5229 5 15ZM15 2.5C8.09644 2.5 2.5 8.09644 2.5 15C2.5 21.9035 8.09644 27.5 15 27.5C21.9035 27.5 27.5 21.9035 27.5 15C27.5 8.09644 21.9035 2.5 15 2.5ZM16.25 7.5C16.25 6.80965 15.6904 6.25 15 6.25C14.3096 6.25 13.75 6.80965 13.75 7.5V15C13.75 15.3315 13.8817 15.6495 14.1161 15.8839L17.8661 19.6339C18.3542 20.122 19.1457 20.122 19.6339 19.6339C20.122 19.1457 20.122 18.3542 19.6339 17.8661L16.25 14.4822V7.5Z" fill="#EAEAEA"/>
</svg>
