<svg width="30" height="30" viewBox="0 0 30 30" fill="none" xmlns="http://www.w3.org/2000/svg">
<path d="M26.0625 13.0471H25.5083V10.2215H22.5977V7.67163H18.6875V13.0471H11.3107L11.3125 7.67163H7.40181V10.2215H4.49169V13.0471H3.93701C3.14452 13.0471 2.5 13.6922 2.5 14.4846V15.5154C2.5 16.3079 3.14452 16.9529 3.93701 16.9529H4.49169V19.7732L7.40186 19.7783V22.3284H11.3076L11.3094 16.9529H18.6875V22.3284H22.5976V19.779H25.5083V16.9529H26.0625C26.855 16.9529 27.5 16.3078 27.5 15.5153V14.4846C27.5 13.6921 26.855 13.0471 26.0625 13.0471ZM4.49169 15.9529H3.93701C3.6958 15.9529 3.49998 15.7566 3.49998 15.5154V14.4846C3.49998 14.2434 3.6958 14.0472 3.93701 14.0472H4.49169V15.9529ZM7.40186 18.7781L5.49172 18.7751V16.9529V13.0471V11.2214H7.40186V18.7781ZM10.31 15L10.3066 16.9529H10.3093L10.3076 21.3284H8.40184V19.7801V10.2215V8.67166H10.3125L10.31 15ZM18.6875 15.9529H11.3097L11.31 15L11.3115 14.0472H18.6875V15.9529ZM21.5976 10.2215V19.7791V21.3284H19.6875V16.953V13.0472V8.67177H21.5976V10.2215ZM24.5083 13.0471V16.9529V18.7791H22.5976V11.2214H24.5083V13.0471ZM26.5 15.5154C26.5 15.7566 26.3037 15.9529 26.0625 15.9529H25.5083V14.0471H26.0625C26.3037 14.0471 26.5 14.2434 26.5 14.4846V15.5154Z" fill="white"/>
</svg>
