<svg width="30" height="30" viewBox="0 0 30 30" fill="none" xmlns="http://www.w3.org/2000/svg">
<path d="M15 23.418C13.8291 23.4138 12.6801 23.1 11.6695 22.5085C10.6589 21.9171 9.8227 21.0689 9.24563 20.05C8.66857 19.0311 8.37118 17.8778 8.38361 16.7069C8.39605 15.536 8.71786 14.3892 9.31643 13.3828C9.25731 13.0435 9.22725 12.6998 9.22659 12.3555C9.22659 10.8243 9.83486 9.35576 10.9176 8.27303C12.0003 7.1903 13.4688 6.58203 15 6.58203C16.5312 6.58203 17.9997 7.1903 19.0825 8.27303C20.1652 9.35576 20.7735 10.8243 20.7735 12.3555C20.7728 12.6998 20.7428 13.0435 20.6836 13.3828C21.2822 14.3892 21.604 15.536 21.6164 16.7069C21.6289 17.8778 21.3315 19.0311 20.7544 20.05C20.1774 21.0689 19.3411 21.9171 18.3306 22.5085C17.32 23.1 16.171 23.4138 15 23.418ZM15 7.36328C14.2578 7.36391 13.525 7.52992 12.855 7.84923C12.1849 8.16854 11.5944 8.63314 11.1264 9.20925C10.6584 9.78536 10.3247 10.4585 10.1494 11.1798C9.97418 11.901 9.96184 12.6523 10.1133 13.3789C10.1334 13.4787 10.1138 13.5824 10.0586 13.668C9.49422 14.5537 9.17826 15.5748 9.14381 16.6246C9.10936 17.6743 9.35769 18.7139 9.8628 19.6348C10.3679 20.5556 11.1113 21.3237 12.015 21.8588C12.9188 22.3938 13.9498 22.6761 15 22.6761C16.0503 22.6761 17.0813 22.3938 17.985 21.8588C18.8888 21.3237 19.6321 20.5556 20.1373 19.6348C20.6424 18.7139 20.8907 17.6743 20.8563 16.6246C20.8218 15.5748 20.5058 14.5537 19.9414 13.668C19.8862 13.5824 19.8666 13.4787 19.8867 13.3789C20.0382 12.6523 20.0259 11.901 19.8506 11.1798C19.6754 10.4585 19.3416 9.78536 18.8736 9.20925C18.4056 8.63314 17.8152 8.16854 17.1451 7.84923C16.4751 7.52992 15.7423 7.36391 15 7.36328ZM19.2071 12.5781C19.1089 12.5788 19.0141 12.5426 18.9414 12.4766C17.8649 11.4919 16.4589 10.9459 15 10.9459C13.5412 10.9459 12.1351 11.4919 11.0586 12.4766C11.0018 12.5295 10.9304 12.5642 10.8538 12.5764C10.7771 12.5885 10.6985 12.5776 10.6281 12.5449C10.5576 12.5122 10.4985 12.4592 10.4583 12.3928C10.4181 12.3263 10.3987 12.2494 10.4024 12.1719C10.4513 10.9853 10.9571 9.86357 11.814 9.0413C12.6708 8.21902 13.8124 7.75988 15 7.75988C16.1876 7.75988 17.3292 8.21902 18.1861 9.0413C19.043 9.86357 19.5488 10.9853 19.5977 12.1719C19.6009 12.2492 19.5811 12.3258 19.5408 12.3919C19.5005 12.4579 19.4414 12.5105 19.3711 12.543C19.3196 12.5664 19.2636 12.5784 19.2071 12.5781ZM15 10.1641C16.3038 10.1622 17.5789 10.5469 18.6641 11.2695C18.4307 10.4787 17.9477 9.78468 17.2873 9.29103C16.6269 8.79737 15.8245 8.53062 15 8.53062C14.1755 8.53062 13.3731 8.79737 12.7127 9.29103C12.0523 9.78468 11.5694 10.4787 11.336 11.2695C12.4212 10.5469 13.6962 10.1622 15 10.1641Z" fill="white"/>
<path d="M20.0485 12.0937C19.9307 12.0946 19.8169 12.0511 19.7297 11.9719C18.4379 10.7903 16.7507 10.1351 15 10.1351C13.2494 10.1351 11.5621 10.7903 10.2703 11.9719C10.2021 12.0353 10.1165 12.077 10.0245 12.0916C9.93246 12.1062 9.83817 12.0931 9.75365 12.0538C9.66914 12.0146 9.59823 11.951 9.55 11.8713C9.50176 11.7916 9.47838 11.6993 9.48284 11.6062C9.54155 10.1823 10.1485 8.83626 11.1767 7.84953C12.205 6.86281 13.5749 6.31183 15 6.31183C16.4251 6.31183 17.7951 6.86281 18.8233 7.84953C19.8516 8.83626 20.4585 10.1823 20.5172 11.6062C20.5211 11.699 20.4974 11.7909 20.449 11.8702C20.4006 11.9495 20.3297 12.0126 20.2453 12.0515C20.1835 12.0797 20.1164 12.0941 20.0485 12.0937ZM15 9.19685C16.5646 9.19462 18.0947 9.65625 19.3969 10.5234C19.1168 9.57447 18.5373 8.74159 17.7448 8.14921C16.9523 7.55682 15.9894 7.23672 15 7.23672C14.0106 7.23672 13.0477 7.55682 12.2553 8.14921C11.4628 8.74159 10.8832 9.57447 10.6032 10.5234C11.9054 9.65625 13.4355 9.19462 15 9.19685Z" fill="white"/>
<path d="M20.0485 12.0937C19.9307 12.0946 19.8169 12.0511 19.7297 11.9719C18.4379 10.7903 16.7507 10.1351 15 10.1351C13.2494 10.1351 11.5621 10.7903 10.2703 11.9719C10.2021 12.0353 10.1165 12.077 10.0245 12.0916C9.93246 12.1062 9.83817 12.0931 9.75365 12.0538C9.66914 12.0146 9.59823 11.951 9.55 11.8713C9.50176 11.7916 9.47838 11.6993 9.48284 11.6062C9.54155 10.1823 10.1485 8.83626 11.1767 7.84953C12.205 6.86281 13.5749 6.31183 15 6.31183C16.4251 6.31183 17.7951 6.86281 18.8233 7.84953C19.8516 8.83626 20.4585 10.1823 20.5172 11.6062C20.5211 11.699 20.4974 11.7909 20.449 11.8702C20.4006 11.9495 20.3297 12.0126 20.2453 12.0515C20.1835 12.0797 20.1164 12.0941 20.0485 12.0937ZM15 9.19685C16.5646 9.19462 18.0947 9.65625 19.3969 10.5234C19.1168 9.57447 18.5373 8.74159 17.7448 8.14921C16.9523 7.55682 15.9894 7.23672 15 7.23672C14.0106 7.23672 13.0477 7.55682 12.2553 8.14921C11.4628 8.74159 10.8832 9.57447 10.6032 10.5234C11.9054 9.65625 13.4355 9.19462 15 9.19685Z" fill="white"/>
<path d="M15.4359 23.0438H15.4078C9.78749 22.7203 9.37499 17.5313 9.37499 17.4797C9.3713 17.4182 9.37976 17.3565 9.39991 17.2982C9.42005 17.2399 9.45148 17.1862 9.4924 17.14C9.53331 17.0939 9.58291 17.0563 9.63837 17.0293C9.69383 17.0023 9.75406 16.9865 9.81561 16.9828C9.87717 16.9791 9.93885 16.9876 9.99714 17.0078C10.0554 17.0279 10.1092 17.0593 10.1553 17.1002C10.2014 17.1412 10.2391 17.1908 10.266 17.2462C10.293 17.3017 10.3088 17.3619 10.3125 17.4235C10.3125 17.6016 10.6687 21.8344 15.4687 22.111C15.5931 22.1147 15.7108 22.1677 15.7961 22.2582C15.8813 22.3487 15.9272 22.4695 15.9234 22.5938C15.9197 22.7181 15.8667 22.8358 15.7762 22.9211C15.6856 23.0064 15.5649 23.0522 15.4406 23.0485L15.4359 23.0438Z" fill="white"/>
</svg>
