<svg xmlns="http://www.w3.org/2000/svg" xmlns:xlink="http://www.w3.org/1999/xlink" width="32px" height="32px" viewBox="0 0 32 32" version="1.1">
<g id="surface1">
<path style=" stroke:none;fill-rule:nonzero;fill:#ffffff;fill-opacity:1;" d="M 23.308594 9.527344 L 24.601562 6.515625 C 25.222656 5.066406 25.074219 3.417969 24.207031 2.101562 C 23.339844 0.785156 21.882812 0 20.304688 0 L 11.695312 0 C 10.117188 0 8.660156 0.785156 7.792969 2.101562 C 6.925781 3.417969 6.777344 5.066406 7.398438 6.515625 L 8.691406 9.527344 C 4.339844 12.109375 1.660156 16.785156 1.660156 21.867188 C 1.660156 25.589844 3.082031 29.121094 5.664062 31.804688 C 5.785156 31.929688 5.949219 32 6.125 32 L 25.875 32 C 26.050781 32 26.214844 31.929688 26.335938 31.804688 C 28.917969 29.121094 30.339844 25.589844 30.339844 21.867188 C 30.339844 16.789062 27.65625 12.109375 23.308594 9.527344 Z M 8.570312 6.011719 C 8.121094 4.960938 8.226562 3.757812 8.855469 2.804688 C 9.488281 1.847656 10.546875 1.273438 11.695312 1.273438 L 20.304688 1.273438 C 21.453125 1.273438 22.511719 1.847656 23.144531 2.804688 C 23.773438 3.757812 23.878906 4.960938 23.429688 6.011719 L 20.722656 12.316406 C 20.664062 12.457031 20.527344 12.546875 20.375 12.546875 C 20.324219 12.546875 20.273438 12.539062 20.226562 12.515625 C 20.03125 12.433594 19.941406 12.210938 20.027344 12.019531 L 22.730469 5.714844 C 23.085938 4.882812 23.003906 3.976562 22.507812 3.222656 C 22.011719 2.46875 21.207031 2.035156 20.304688 2.035156 L 11.695312 2.035156 C 10.792969 2.035156 9.988281 2.46875 9.492188 3.222656 C 8.996094 3.976562 8.914062 4.882812 9.269531 5.714844 L 11.972656 12.019531 C 12.058594 12.210938 11.96875 12.433594 11.773438 12.515625 C 11.582031 12.597656 11.359375 12.511719 11.277344 12.316406 Z M 16 7.527344 C 14.535156 7.527344 13.097656 7.75 11.714844 8.179688 L 10.441406 5.210938 C 10.253906 4.777344 10.296875 4.316406 10.554688 3.921875 C 10.816406 3.527344 11.21875 3.308594 11.695312 3.308594 L 20.304688 3.308594 C 20.78125 3.308594 21.183594 3.527344 21.445312 3.921875 C 21.703125 4.316406 21.746094 4.773438 21.558594 5.210938 L 20.285156 8.179688 C 18.902344 7.75 17.464844 7.527344 16 7.527344 Z M 25.601562 30.726562 L 6.398438 30.726562 C 4.164062 28.304688 2.9375 25.171875 2.9375 21.867188 C 2.9375 17.292969 5.320312 13.078125 9.199219 10.710938 L 10.105469 12.820312 C 10.464844 13.660156 11.4375 14.046875 12.277344 13.6875 C 13.117188 13.328125 13.503906 12.355469 13.144531 11.515625 L 12.222656 9.359375 C 13.441406 8.992188 14.710938 8.804688 16 8.804688 C 17.289062 8.804688 18.558594 8.992188 19.777344 9.359375 L 18.855469 11.515625 C 18.492188 12.355469 18.882812 13.328125 19.722656 13.6875 C 19.929688 13.777344 20.148438 13.824219 20.375 13.824219 C 21.035156 13.824219 21.632812 13.429688 21.894531 12.820312 L 22.800781 10.710938 C 26.679688 13.078125 29.0625 17.296875 29.0625 21.867188 C 29.0625 25.171875 27.835938 28.304688 25.601562 30.726562 Z M 25.601562 30.726562 "/>
<path style=" stroke:none;fill-rule:nonzero;fill:#ffffff;fill-opacity:1;" d="M 17.914062 28.8125 L 7.332031 28.8125 C 6.980469 28.8125 6.695312 29.097656 6.695312 29.449219 C 6.695312 29.800781 6.980469 30.085938 7.332031 30.085938 L 17.914062 30.085938 C 18.265625 30.085938 18.550781 29.800781 18.550781 29.449219 C 18.550781 29.097656 18.265625 28.8125 17.914062 28.8125 Z M 17.914062 28.8125 "/>
<path style=" stroke:none;fill-rule:nonzero;fill:#ffffff;fill-opacity:1;" d="M 20.78125 28.8125 L 20.144531 28.8125 C 19.792969 28.8125 19.507812 29.097656 19.507812 29.449219 C 19.507812 29.800781 19.792969 30.085938 20.144531 30.085938 L 20.78125 30.085938 C 21.132812 30.085938 21.417969 29.800781 21.417969 29.449219 C 21.417969 29.097656 21.132812 28.8125 20.78125 28.8125 Z M 20.78125 28.8125 "/>
</g>
</svg>