<svg width="30" height="30" viewBox="0 0 30 30" fill="none" xmlns="http://www.w3.org/2000/svg">
<path d="M8.08718 3.70673C5.53347 4.03876 3.54617 5.86005 3.00418 8.36005C2.87722 8.93623 2.87722 10.1276 3.00418 10.7038C3.20437 11.6364 3.62918 12.5251 4.23465 13.2673C4.49832 13.5944 4.73758 14.1511 4.80105 14.6003C4.92312 15.4206 4.71316 16.0993 4.08328 16.9343C1.89578 19.8298 2.83816 24.0046 6.05593 25.6647C9.19558 27.2858 12.9895 25.8112 14.2444 22.486C14.7718 21.0895 14.6985 19.3708 14.0491 17.9987C13.8391 17.5642 13.5169 17.0368 13.3216 16.822C13.2678 16.7585 13.2337 16.6999 13.2434 16.6901C13.2532 16.6755 13.4094 16.7145 13.5803 16.7731C14.4788 17.0759 15.1868 17.8913 15.3626 18.8239C15.3968 19.0192 15.4651 19.3708 15.5091 19.6149C16.0071 22.3444 18.4534 24.3757 21.2464 24.3757C23.4534 24.3757 25.5139 23.0964 26.4905 21.1237C27.9505 18.1696 26.7102 14.6296 23.7171 13.2136C23.18 12.9597 22.7307 12.8327 21.9446 12.7058C21.0852 12.5642 20.68 12.3884 20.2014 11.9294C19.6985 11.4509 19.4495 10.9235 19.3225 10.0446C19.0833 8.45283 18.3557 7.15888 17.1546 6.20673C16.4759 5.66474 15.719 5.29853 14.845 5.08857C14.3128 4.96161 13.2434 4.90302 12.7747 4.98115C12.5208 5.02509 12.4671 5.02021 12.3841 4.94208C12.0081 4.61005 11.2024 4.18036 10.553 3.96552C9.845 3.72626 8.78543 3.61396 8.08718 3.70673ZM9.91824 4.59052C10.8655 4.83954 11.6565 5.279 12.2962 5.91376C13.5364 7.13935 14.0686 8.89228 13.7073 10.5817C13.5511 11.3239 13.2288 12.0026 12.7161 12.696C12.5403 12.9255 12.345 13.2233 12.2815 13.3503C12.218 13.4772 12.1497 13.5847 12.135 13.5847C12.0716 13.5847 11.4514 13.1501 11.3391 13.028L11.2171 12.9011L11.3196 12.6911C11.3733 12.5788 11.5589 12.2858 11.7346 12.0466C12.1594 11.4558 12.2376 11.3142 12.3889 10.9186C13.1067 9.00947 12.2669 6.89521 10.4358 6.0163C9.82058 5.72333 9.50808 5.65497 8.74636 5.65497C7.98465 5.65497 7.67215 5.72333 7.05691 6.0163C5.47488 6.77802 4.58133 8.52607 4.90847 10.2253C5.00613 10.7429 5.2405 11.3093 5.52371 11.7048C6.2659 12.7546 6.44656 13.1013 6.65652 13.8679C6.80789 14.4099 6.80789 15.5915 6.65652 16.1335C6.50027 16.7048 6.27566 17.2028 5.98269 17.6227C5.40652 18.4528 5.22586 18.7458 5.1282 19.0046C4.60574 20.3913 4.8157 21.7829 5.71414 22.9304C6.16824 23.5065 7.00808 24.0534 7.7698 24.2585C8.21414 24.3806 9.28347 24.3806 9.71804 24.2585C10.9778 23.9118 12.0032 22.9792 12.4134 21.8073C12.7307 20.8894 12.7259 19.9763 12.3889 19.0827C12.2376 18.6774 12.1448 18.5261 11.7493 17.9792C11.2757 17.3298 10.9778 16.7341 10.8509 16.1774L10.8118 15.9919L11.3245 16.2019C11.6077 16.3142 11.9153 16.4265 12.0178 16.4411C12.1692 16.4655 12.2132 16.5046 12.2962 16.6755C12.3499 16.7878 12.5501 17.0905 12.7405 17.3444C13.302 18.111 13.6145 18.8288 13.7512 19.6638C14.2346 22.6325 12.0276 25.3669 9.01004 25.5329C6.42703 25.6745 4.15652 23.8435 3.74148 21.2751C3.51199 19.8737 3.86355 18.5358 4.77664 17.3054C5.39675 16.4753 5.59695 15.9186 5.59695 15.0007C5.59695 14.0778 5.39675 13.5261 4.76687 12.6813C4.08328 11.7683 3.75125 10.8747 3.68289 9.77607C3.57547 8.03779 4.45925 6.28974 5.93875 5.30829C6.53933 4.9079 7.29617 4.61005 7.98953 4.50263C8.44851 4.43427 9.49343 4.4831 9.91824 4.59052ZM14.7278 5.86493C16.1927 6.22626 17.4085 7.21259 18.0725 8.57978C18.3362 9.11201 18.4729 9.58564 18.5803 10.3425C18.7122 11.2214 19.0198 11.8464 19.6106 12.4421C20.177 13.0085 20.8557 13.3308 21.7737 13.4675C23.0481 13.6579 23.9759 14.1022 24.8059 14.9128C27.1106 17.1833 26.7298 20.9772 24.0149 22.7644C22.7796 23.5798 21.1682 23.8093 19.762 23.3649C17.843 22.7644 16.4807 21.1335 16.2122 19.1169C16.095 18.1989 15.7483 17.4567 15.1721 16.8806C14.5569 16.2653 13.9759 15.9919 12.9553 15.8308C11.6516 15.6257 10.7874 15.2058 9.928 14.3561C9.303 13.7458 8.83914 12.9352 8.59011 12.0319C8.50222 11.7145 8.48269 11.5192 8.48269 10.8015C8.48269 10.0593 8.49734 9.89326 8.595 9.53193C8.72683 9.03876 9.04422 8.3454 9.3323 7.92548C9.54714 7.60322 10.1233 6.96845 10.2649 6.89521C10.3284 6.85615 10.4163 6.90009 10.6409 7.06122C10.802 7.17841 10.9925 7.35419 11.0657 7.45185L11.1975 7.62763L10.8557 7.9499C10.2747 8.48212 9.90359 9.12177 9.71316 9.91767C9.58132 10.4743 9.60574 11.3825 9.77175 11.9001C10.1721 13.1599 11.1194 14.112 12.3645 14.5075C12.5354 14.5612 12.9163 14.6442 13.2044 14.6833C14.3567 14.8542 15.2307 15.279 16.0022 16.0456C16.7591 16.8073 17.1839 17.6813 17.3596 18.8581C17.3987 19.1413 17.4719 19.488 17.5159 19.6345C17.9016 20.9382 18.9075 21.9099 20.2698 22.3054C20.7044 22.4274 21.7688 22.4323 22.2229 22.3054C22.9944 22.1003 23.7854 21.5925 24.2737 20.9919C24.5618 20.6403 24.9134 19.9519 25.0354 19.4929C25.1624 19.0388 25.1575 17.9743 25.0354 17.5397C24.7522 16.5583 24.1809 15.777 23.3655 15.2448C22.8968 14.9372 22.3206 14.737 21.6321 14.6345C20.4114 14.4538 19.5471 14.0436 18.7757 13.2722C18.0188 12.5153 17.5843 11.6267 17.4182 10.5085C17.3157 9.83466 17.2132 9.46845 16.9983 9.04365C16.6175 8.28681 16.012 7.68134 15.2649 7.31513C14.845 7.10517 14.3469 6.94404 14.1223 6.94404C14.0491 6.94404 13.9759 6.87568 13.8831 6.71943C13.8098 6.59247 13.6341 6.3288 13.4973 6.12861C13.3557 5.92841 13.2386 5.75263 13.2386 5.73798C13.2386 5.67939 14.3567 5.77216 14.7278 5.86493ZM9.39089 6.48017C9.46414 6.50947 9.43484 6.56318 9.20535 6.81708C8.17019 7.9499 7.6575 9.26826 7.6575 10.777C7.6575 12.4177 8.22879 13.7751 9.42996 14.9567L9.95242 15.4694L9.9866 15.7575C10.0354 16.1872 10.1917 16.7487 10.3772 17.1882C10.5677 17.6374 10.6848 17.8278 11.1438 18.4724C11.5247 19.0046 11.7053 19.3757 11.803 19.8347C12.2083 21.7487 10.7093 23.5944 8.74636 23.5944C6.96414 23.5944 5.53836 22.0808 5.63601 20.2985C5.67508 19.5808 5.88992 19.0729 6.50515 18.2477C7.92605 16.3337 7.92605 13.6677 6.50515 11.7536C5.88015 10.9138 5.67508 10.4352 5.63601 9.69794C5.60183 9.12666 5.70437 8.64326 5.97293 8.10126C6.36355 7.3249 7.19363 6.67548 8.06277 6.48017C8.38015 6.40693 9.21023 6.40693 9.39089 6.48017ZM15.0452 8.07197C15.4407 8.28193 15.8313 8.64326 16.1096 9.06806C16.4026 9.49775 16.5296 9.87373 16.6321 10.5573C16.8323 11.9147 17.3352 12.9401 18.2239 13.819C19.1419 14.7175 20.0647 15.1765 21.4026 15.3913C21.7444 15.445 22.1302 15.5231 22.2571 15.5671C23.2288 15.8894 24.0149 16.7487 24.2737 17.7644C24.6985 19.4147 23.6682 21.1188 21.9983 21.5436C20.4602 21.9392 18.8001 21.0358 18.2971 19.527C18.2532 19.4001 18.1751 19.0144 18.1214 18.6726C17.9016 17.3249 17.4182 16.3581 16.5052 15.4499C15.6604 14.6101 14.4446 14.0241 13.2776 13.902C13.0725 13.8776 12.9456 13.8435 12.9456 13.8093C12.9456 13.736 13.136 13.4382 13.5071 12.9255C13.9807 12.2663 14.2981 11.5485 14.4934 10.694C14.6057 10.1862 14.6057 8.86298 14.4886 8.36005C14.3274 7.69599 14.3225 7.76435 14.5569 7.84736C14.6692 7.88642 14.8889 7.98896 15.0452 8.07197ZM11.7981 8.8874C11.9348 9.5124 11.8616 10.1911 11.6077 10.7673C11.471 11.0798 10.7483 12.1247 10.6946 12.0905C10.6751 12.0808 10.6067 11.9196 10.5432 11.739C10.3821 11.2751 10.3821 10.3474 10.5384 9.84931C10.6848 9.39033 10.9534 8.94599 11.305 8.58954L11.593 8.29658L11.6614 8.42841C11.7005 8.50165 11.7639 8.70673 11.7981 8.8874Z" fill="white"/>
</svg>
