<svg xmlns="http://www.w3.org/2000/svg" xmlns:xlink="http://www.w3.org/1999/xlink" width="32px" height="32px" viewBox="0 0 32 32" version="1.1">
<g id="surface1">
<path style=" stroke:none;fill-rule:nonzero;fill:#ffffff;fill-opacity:1;" d="M 23.636719 24.394531 C 25.078125 24.394531 26.25 23.222656 26.25 21.78125 C 26.25 20.339844 25.078125 19.167969 23.636719 19.167969 C 22.195312 19.167969 21.023438 20.339844 21.023438 21.78125 C 21.023438 23.222656 22.195312 24.394531 23.636719 24.394531 Z M 23.636719 20.570312 C 24.304688 20.570312 24.847656 21.113281 24.847656 21.78125 C 24.847656 22.449219 24.304688 22.992188 23.636719 22.992188 C 22.96875 22.992188 22.425781 22.449219 22.425781 21.78125 C 22.425781 21.113281 22.96875 20.570312 23.636719 20.570312 Z M 31.300781 29.542969 L 30.296875 29.542969 C 30.296875 29.519531 30.300781 29.492188 30.300781 29.46875 C 30.300781 29.082031 29.984375 28.765625 29.597656 28.765625 L 28.027344 28.765625 L 27.359375 28.003906 C 28.9375 27.460938 30.074219 25.960938 30.074219 24.203125 L 30.074219 19.105469 C 30.074219 17.707031 29.308594 16.484375 28.175781 15.835938 L 28.175781 5.269531 L 29.375 5.269531 C 29.59375 5.269531 29.796875 5.167969 29.929688 4.996094 L 31.855469 2.480469 C 32.089844 2.171875 32.03125 1.734375 31.726562 1.5 C 31.417969 1.261719 30.976562 1.320312 30.742188 1.628906 L 29.027344 3.867188 L 27.484375 3.867188 C 27.476562 3.867188 27.46875 3.867188 27.464844 3.867188 L 25.5625 3.867188 C 25.175781 3.867188 24.859375 4.179688 24.859375 4.570312 C 24.859375 4.957031 25.175781 5.269531 25.5625 5.269531 L 26.773438 5.269531 L 26.773438 15.371094 C 26.621094 15.351562 26.46875 15.34375 26.3125 15.34375 L 24.488281 15.34375 L 19.90625 12.066406 C 19.410156 11.707031 19.078125 11.175781 18.976562 10.5625 C 18.875 9.953125 19.015625 9.34375 19.375 8.84375 L 19.855469 8.171875 C 20.117188 8.285156 20.40625 8.324219 20.695312 8.273438 C 21.09375 8.210938 21.4375 7.996094 21.671875 7.667969 L 24.386719 3.875 C 24.621094 3.550781 24.710938 3.152344 24.644531 2.757812 C 24.578125 2.363281 24.363281 2.019531 24.039062 1.785156 L 23.410156 1.335938 C 22.738281 0.855469 21.800781 1.007812 21.320312 1.679688 L 18.605469 5.476562 C 18.371094 5.800781 18.28125 6.195312 18.34375 6.589844 C 18.394531 6.882812 18.523438 7.144531 18.714844 7.355469 L 18.234375 8.027344 C 17.660156 8.832031 17.429688 9.8125 17.59375 10.792969 C 17.757812 11.773438 18.289062 12.628906 19.089844 13.207031 L 22.28125 15.484375 C 20 15.976562 18.164062 17.679688 17.480469 19.886719 L 12.507812 18.179688 C 12.449219 17.410156 11.800781 16.796875 11.011719 16.796875 L 6.347656 16.796875 C 5.519531 16.796875 4.847656 17.46875 4.847656 18.296875 L 4.847656 19.070312 C 4.847656 19.898438 5.519531 20.570312 6.347656 20.570312 L 8.867188 20.570312 L 7.746094 21.824219 L 4.308594 21.824219 C 3.480469 21.824219 2.808594 22.496094 2.808594 23.324219 L 2.808594 24.097656 C 2.808594 24.925781 3.480469 25.597656 4.308594 25.597656 L 4.511719 25.597656 L 2.058594 28.765625 L 0.699219 28.765625 C 0.3125 28.765625 0 29.082031 0 29.46875 C 0 29.613281 0.0429688 29.746094 0.117188 29.855469 C 0.0429688 29.96875 0 30.101562 0 30.242188 C 0 30.632812 0.3125 30.945312 0.699219 30.945312 L 31.300781 30.945312 C 31.6875 30.945312 32 30.632812 32 30.242188 C 32 29.855469 31.6875 29.542969 31.300781 29.542969 Z M 19.746094 6.289062 L 22.460938 2.496094 C 22.492188 2.453125 22.554688 2.445312 22.59375 2.472656 L 23.222656 2.925781 C 23.25 2.945312 23.257812 2.96875 23.261719 2.988281 C 23.265625 3.007812 23.265625 3.035156 23.246094 3.058594 L 20.53125 6.855469 C 20.5 6.894531 20.4375 6.90625 20.394531 6.875 L 20.085938 6.652344 C 20.085938 6.652344 20.082031 6.652344 20.082031 6.652344 C 20.078125 6.648438 20.078125 6.648438 20.078125 6.648438 L 19.765625 6.425781 C 19.742188 6.40625 19.730469 6.378906 19.730469 6.363281 C 19.726562 6.34375 19.726562 6.316406 19.746094 6.289062 Z M 18.601562 21.78125 C 18.601562 21.496094 18.625 21.214844 18.667969 20.945312 C 18.671875 20.925781 18.675781 20.910156 18.679688 20.890625 C 19.101562 18.535156 21.164062 16.742188 23.636719 16.742188 L 26.3125 16.742188 C 27.613281 16.742188 28.671875 17.804688 28.671875 19.105469 L 28.671875 24.203125 C 28.671875 25.644531 27.5 26.816406 26.058594 26.816406 L 19.421875 26.816406 C 18.96875 26.816406 18.601562 26.449219 18.601562 25.996094 Z M 12.402344 19.628906 L 17.21875 21.277344 C 17.203125 21.445312 17.199219 21.609375 17.199219 21.78125 L 17.199219 23.007812 L 10.4375 23.007812 C 10.332031 22.519531 9.988281 22.117188 9.53125 21.933594 L 10.75 20.570312 L 11.011719 20.570312 C 11.640625 20.570312 12.183594 20.179688 12.402344 19.628906 Z M 6.347656 19.167969 C 6.296875 19.167969 6.25 19.121094 6.25 19.070312 L 6.25 18.296875 C 6.25 18.246094 6.296875 18.199219 6.347656 18.199219 L 11.011719 18.199219 C 11.0625 18.199219 11.109375 18.246094 11.109375 18.296875 L 11.109375 18.667969 C 11.109375 18.675781 11.109375 18.6875 11.109375 18.699219 L 11.109375 19.070312 C 11.109375 19.121094 11.0625 19.167969 11.011719 19.167969 Z M 4.308594 24.195312 C 4.257812 24.195312 4.210938 24.148438 4.210938 24.097656 L 4.210938 23.324219 C 4.210938 23.273438 4.257812 23.226562 4.308594 23.226562 L 8.054688 23.226562 C 8.058594 23.226562 8.058594 23.226562 8.0625 23.226562 L 8.972656 23.226562 C 9.023438 23.226562 9.070312 23.273438 9.070312 23.324219 L 9.070312 24.097656 C 9.070312 24.148438 9.023438 24.195312 8.972656 24.195312 Z M 25.824219 28.765625 C 25.4375 28.765625 25.121094 29.082031 25.121094 29.46875 C 25.121094 29.492188 25.125 29.519531 25.125 29.542969 L 5.171875 29.542969 C 5.175781 29.519531 5.175781 29.492188 5.175781 29.46875 C 5.175781 29.082031 4.863281 28.765625 4.476562 28.765625 L 3.832031 28.765625 L 6.285156 25.597656 L 8.972656 25.597656 C 9.691406 25.597656 10.292969 25.085938 10.4375 24.410156 L 17.199219 24.410156 L 17.199219 25.996094 C 17.199219 27.222656 18.195312 28.21875 19.421875 28.21875 L 25.679688 28.21875 L 26.164062 28.765625 Z M 25.824219 28.765625 "/>
</g>
</svg>